<svg xmlns="http://www.w3.org/2000/svg" viewBox="0 0 48 48">
	<style>
        path {fill:#333}
		@media (prefers-color-scheme:dark){path{fill:#fff}}
	</style>
	<path d="M12.24 43.95C8.92 42 6.4 39.33 4.62 35.84s-2.68-7.46-2.68-11.92.89-8.43 2.68-11.84S9 6 12.32 4.05C15.64 2.11 19.54 1.13 24 1.13s8.35.97 11.68 2.92 5.92 4.62 7.7 8.03 2.68 7.38 2.68 11.84-.89 8.43-2.68 11.92S39 42 35.68 43.95c-3.32 1.95-7.22 2.92-11.68 2.92s-8.35-.97-11.68-2.92h-.08Zm17.84-6c1.78-1.3 3.08-3.08 3.97-5.43.89-2.35 1.38-5.19 1.38-8.43s-.4-5.92-1.3-8.27c-.89-2.35-2.19-4.14-3.97-5.43-1.78-1.3-3.89-1.95-6.41-1.95s-4.54.65-6.33 1.95c-1.78 1.3-3.08 3.08-3.97 5.43-.89 2.35-1.38 5.11-1.38 8.27s.48 5.92 1.38 8.27c.89 2.35 2.27 4.14 4.06 5.43 1.78 1.3 3.89 1.95 6.32 1.95s4.62-.65 6.41-1.95l-.16.16Z"/>
</svg>
